<svg viewBox="0 0 334 153" fill="none" xmlns="http://www.w3.org/2000/svg">
<g clip-path="url(#clip0_206_77)">
<path d="M173.51 66.68H160.08V40.06H120.14V66.68H106.83V0H173.51V66.68ZM160.08 13.43H120.14V26.74H160.08V13.43Z" fill="#17739A"/>
<path d="M253.43 0V13.43H226.68V66.68H213.37V13.43H186.74V0H253.42H253.43Z" fill="#17739A"/>
<path d="M333.44 26.74V66.68H266.76V53.37H320.01V40.06H266.76V0H333.44V13.43H280.07V26.74H333.44Z" fill="#17739A"/>
<path d="M13.31 85.89V139.26H66.68V152.57H0V85.89H13.31Z" fill="#17739A"/>
<path d="M80.04 152.57V85.89H146.72V152.57H80.04ZM133.29 99.32H93.35V139.26H133.29V99.32Z" fill="#17739A"/>
<path d="M226.76 112.63V152.57H160.08V85.89H226.76V99.32H173.39V139.26H213.33V125.95H186.7V112.63H226.76Z" fill="#17739A"/>
<path d="M253.43 85.89V152.57H240.12V85.89H253.43Z" fill="#17739A"/>
<path d="M13.31 0V66.68H0V0H13.31Z" fill="#3BA9C6"/>
<path d="M280.06 139.26H333.43V152.57H266.75V85.89H333.43V99.32H280.06V139.26Z" fill="#17739A"/>
<path d="M36.0302 0H22.7202V66.68H36.0302V0Z" fill="#3BA9C6"/>
<path d="M80.0399 0V26.74H45.4399V40.06H80.0399V66.68H93.4699V0H80.0399Z" fill="#17739A"/>
</g>
<defs>
<clipPath id="clip0_206_77">
<rect width="333.44" height="152.57" fill="white"/>
</clipPath>
</defs>
</svg>
